#N canvas 169 212 1212 706 10;
#X obj 331 232 tgl 15 0 empty empty empty 17 7 0 10 -262144 -1 -1 0
1;
#X obj 276 259 tgl 15 0 empty empty empty 17 7 0 10 -262144 -1 -1 0
1;
#X obj 258 309 tgl 15 0 empty empty empty 17 7 0 10 -262144 -1 -1 0
1;
#X obj 283 362 tgl 15 0 empty empty empty 17 7 0 10 -262144 -1 -1 0
1;
#X obj 333 382 tgl 15 0 empty empty empty 17 7 0 10 -262144 -1 -1 0
1;
#X obj 389 366 tgl 15 0 empty empty empty 17 7 0 10 -262144 -1 -1 0
1;
#X obj 392 311 tgl 15 0 empty empty empty 17 7 0 10 -262144 -1 -1 0
1;
#X obj 388 256 tgl 15 0 empty empty empty 17 7 0 10 -262144 -1 -1 0
1;
#X obj 205 519 makenote 100 800;
#X obj 205 557 noteout;
#X floatatom 229 414 5 0 0 0 - - -;
#X connect 8 0 9 0;
#X connect 8 1 9 1;
#X connect 10 0 8 1;
#X connect 10 0 8 0;
